<svg xmlns="http://www.w3.org/2000/svg" viewBox="0 0 47 47" width="64" height="64"><defs><linearGradient id="pipeGrad" x1="0" x2="0" y1="0" y2="1"><stop offset="0%" stop-color="#322119"/><stop offset="50%" stop-color="#6a442f"/><stop offset="100%" stop-color="#322119"/></linearGradient></defs><rect x="1.5" y="1.5" width="44" height="44" fill="none" stroke="#8408EF"/><g transform="rotate(270 23.5 23.5)"><rect x="23.5" y="16.5" width="24" height="14" fill="url(#pipeGrad)" stroke="#6a442f"/><path d="m0 0 3 3 -3 3 m3 -6 3 3 -3 3" fill="none" stroke="#a8e797" stroke-width="1.5" transform="translate(38.5 20.5) scale(-1 1) translate(-6 0)"/></g><g transform=""><rect x="23.5" y="16.5" width="24" height="14" fill="url(#pipeGrad)" stroke="#6a442f"/><path d="m0 0 3 3 -3 3 m3 -6 3 3 -3 3" fill="none" stroke="#a8e797" stroke-width="1.5" transform="translate(38.5 20.5) scale(-1 1) translate(-6 0)"/></g><g transform="rotate(90 23.5 23.5)"><rect x="23.5" y="16.5" width="24" height="14" fill="url(#pipeGrad)" stroke="#6a442f"/><path d="m0 0 3 3 -3 3 m3 -6 3 3 -3 3" fill="none" stroke="#a8e797" stroke-width="1.5" transform="translate(38.5 20.5)"/></g><circle cx="23.5" cy="23.5" r="13" fill="#26292d" stroke="#54565b"/><text x="50%" y="50%" fill="#34AC00" text-shadow="#000 1px 1px" text-anchor="middle" dominant-baseline="central" font-size="10" user-select="none" font-family="Helvetica">+10%</text></svg>