<?xml version="1.0" encoding="utf-8"?>
<svg xmlns="http://www.w3.org/2000/svg" viewBox="0 0 500 500">
  <g fill="#f0e7d5" fill-rule="nonzero" stroke="none" stroke-width="1" stroke-linecap="butt" stroke-linejoin="miter" stroke-miterlimit="10" stroke-dasharray="" stroke-dashoffset="0" font-family="none" font-weight="none" font-size="none" text-anchor="none" style="mix-blend-mode: normal" transform="matrix(0.479686, 0, 0, 0.481058, 9.931328, 2.242958)">
    <g transform="scale(16,16)">
      <path d="M7.5,1.00781c-0.54297,0 -1.08594,0.25781 -1.39453,0.77344l-5.87891,9.82422c-0.625,1.03906 0.17578,2.39453 1.39063,2.39453h11.76172c1.21875,0 2.01953,-1.35547 1.39844,-2.39453l-5.88281,-9.82422c-0.30859,-0.51562 -0.85156,-0.77344 -1.39453,-0.77344zM7.5,1.99219c0.20703,0 0.41406,0.10156 0.53906,0.30469l5.87891,9.82031c0.24609,0.41016 -0.02734,0.88281 -0.53906,0.88281h-11.76172c-0.50781,0 -0.78125,-0.47266 -0.53516,-0.88281l5.87891,-9.82031c0.125,-0.20312 0.33203,-0.30469 0.53906,-0.30469zM6.99219,5v5h1v-5zM6.99219,11v1h1v-1z" style="stroke-linecap: round; stroke-linejoin: round; stroke: rgb(0, 0, 0); stroke-width: 0.130107px;"/>
    </g>
  </g>
  <g fill="#f0e7d5" fill-rule="nonzero" stroke="none" stroke-width="1" stroke-linecap="butt" stroke-linejoin="miter" stroke-miterlimit="10" stroke-dasharray="" stroke-dashoffset="0" font-family="none" font-weight="none" font-size="none" text-anchor="none" style="mix-blend-mode: normal" transform="matrix(0.479686, 0, 0, 0.481058, 9.931326, 382.24295)">
    <g transform="scale(16,16)">
      <path d="M7.5,1.00781c-0.54297,0 -1.08594,0.25781 -1.39453,0.77344l-5.87891,9.82422c-0.625,1.03906 0.17578,2.39453 1.39063,2.39453h11.76172c1.21875,0 2.01953,-1.35547 1.39844,-2.39453l-5.88281,-9.82422c-0.30859,-0.51562 -0.85156,-0.77344 -1.39453,-0.77344zM7.5,1.99219c0.20703,0 0.41406,0.10156 0.53906,0.30469l5.87891,9.82031c0.24609,0.41016 -0.02734,0.88281 -0.53906,0.88281h-11.76172c-0.50781,0 -0.78125,-0.47266 -0.53516,-0.88281l5.87891,-9.82031c0.125,-0.20312 0.33203,-0.30469 0.53906,-0.30469zM6.99219,5v5h1v-5zM6.99219,11v1h1v-1z" style="stroke-linecap: round; stroke-linejoin: round; stroke: rgb(0, 0, 0); stroke-width: 0.130107px;"/>
    </g>
  </g>
  <g fill="#f0e7d5" fill-rule="nonzero" stroke="none" stroke-width="1" stroke-linecap="butt" stroke-linejoin="miter" stroke-miterlimit="10" stroke-dasharray="" stroke-dashoffset="0" font-family="none" font-weight="none" font-size="none" text-anchor="none" style="mix-blend-mode: normal" transform="matrix(0.479686, 0, 0, 0.481058, 374.931335, 2.242958)">
    <g transform="scale(16,16)">
      <path d="M7.5,1.00781c-0.54297,0 -1.08594,0.25781 -1.39453,0.77344l-5.87891,9.82422c-0.625,1.03906 0.17578,2.39453 1.39063,2.39453h11.76172c1.21875,0 2.01953,-1.35547 1.39844,-2.39453l-5.88281,-9.82422c-0.30859,-0.51562 -0.85156,-0.77344 -1.39453,-0.77344zM7.5,1.99219c0.20703,0 0.41406,0.10156 0.53906,0.30469l5.87891,9.82031c0.24609,0.41016 -0.02734,0.88281 -0.53906,0.88281h-11.76172c-0.50781,0 -0.78125,-0.47266 -0.53516,-0.88281l5.87891,-9.82031c0.125,-0.20312 0.33203,-0.30469 0.53906,-0.30469zM6.99219,5v5h1v-5zM6.99219,11v1h1v-1z" style="stroke-linecap: round; stroke-linejoin: round; stroke: rgb(0, 0, 0); stroke-width: 0.130107px;"/>
    </g>
  </g>
  <g fill="#f0e7d5" fill-rule="nonzero" stroke="none" stroke-width="1" stroke-linecap="butt" stroke-linejoin="miter" stroke-miterlimit="10" stroke-dasharray="" stroke-dashoffset="0" font-family="none" font-weight="none" font-size="none" text-anchor="none" style="mix-blend-mode: normal" transform="matrix(0.479686, 0, 0, 0.481058, 374.931335, 382.24295)">
    <g transform="scale(16,16)">
      <path d="M7.5,1.00781c-0.54297,0 -1.08594,0.25781 -1.39453,0.77344l-5.87891,9.82422c-0.625,1.03906 0.17578,2.39453 1.39063,2.39453h11.76172c1.21875,0 2.01953,-1.35547 1.39844,-2.39453l-5.88281,-9.82422c-0.30859,-0.51562 -0.85156,-0.77344 -1.39453,-0.77344zM7.5,1.99219c0.20703,0 0.41406,0.10156 0.53906,0.30469l5.87891,9.82031c0.24609,0.41016 -0.02734,0.88281 -0.53906,0.88281h-11.76172c-0.50781,0 -0.78125,-0.47266 -0.53516,-0.88281l5.87891,-9.82031c0.125,-0.20312 0.33203,-0.30469 0.53906,-0.30469zM6.99219,5v5h1v-5zM6.99219,11v1h1v-1z" style="stroke-linecap: round; stroke-linejoin: round; stroke: rgb(0, 0, 0); stroke-width: 0.130107px;"/>
    </g>
  </g>
  <text style="fill: rgb(240, 231, 213); font-family: Arial, sans-serif; font-size: 70px; stroke: rgb(0, 0, 0); stroke-linecap: round; stroke-linejoin: round; text-anchor: middle; white-space: pre;" transform="matrix(1, 0, 0, 1, 119.503006, 34.673523)"><tspan x="130.975" y="186.424">Arachnophobia</tspan><tspan x="130.975" dy="1em">​</tspan><tspan>Warning</tspan></text>
  <text style="fill: rgb(240, 231, 213); font-family: Arial, sans-serif; font-size: 50px; stroke: rgb(0, 0, 0); stroke-linecap: round; stroke-linejoin: round; text-anchor: middle; white-space: pre;" transform="matrix(1, 0, 0, 1, 95.124001, 84.598099)"><tspan x="154.876" y="275.335">Click to Reveal</tspan><tspan x="154.876" dy="1em">​</tspan></text>
</svg>