<?xml version="1.0" standalone="no"?>
<!DOCTYPE svg PUBLIC "-//W3C//DTD SVG 20010904//EN"
 "http://www.w3.org/TR/2001/REC-SVG-20010904/DTD/svg10.dtd">
<svg version="1.0" xmlns="http://www.w3.org/2000/svg"
 width="260.000000pt" height="260.000000pt" viewBox="0 0 260.000000 260.000000"
 preserveAspectRatio="xMidYMid meet">
<metadata>
Created by potrace 1.14, written by Peter Selinger 2001-2017
</metadata>
<g transform="translate(0.000000,260.000000) scale(0.100000,-0.100000)"
fill="#000000" stroke="none">
<path d="M1169 2596 c-2 -2 -24 -6 -49 -9 -203 -24 -396 -105 -615 -257 -66
-46 -209 -195 -262 -274 -15 -22 -30 -43 -33 -46 -16 -16 -105 -193 -127 -253
-59 -161 -82 -306 -78 -487 2 -80 6 -156 9 -170 5 -23 28 -128 31 -140 16 -78
98 -263 159 -358 102 -160 268 -325 405 -402 14 -8 28 -17 31 -20 21 -22 256
-121 320 -135 8 -2 49 -11 90 -20 88 -20 324 -28 420 -14 376 53 694 252 918
575 73 105 172 352 187 468 3 17 9 54 14 81 10 50 7 299 -3 366 -10 63 -57
234 -67 244 -5 5 -9 15 -9 23 0 41 -122 254 -205 357 -68 85 -259 255 -285
255 -5 0 -15 6 -22 13 -7 7 -42 29 -78 48 -134 72 -293 126 -430 146 -36 5
-317 13 -321 9z"/>
</g>
</svg>
